<svg id="svg" xmlns="http://www.w3.org/2000/svg" xmlns:xlink="http://www.w3.org/1999/xlink" viewBox="0, 0, 400,400"><g id="svgg"><path id="path0" d="M105.000 17.902 C 55.756 28.823,26.783 85.746,46.853 132.143 C 80.782 210.577,193.861 197.490,208.053 113.487 C 218.135 53.811,165.060 4.583,105.000 17.902 M148.161 48.171 C 184.639 64.828,192.803 111.873,164.129 140.192 C 128.814 175.070,70.887 151.659,68.843 101.682 C 67.130 59.805,110.123 30.800,148.161 48.171 M261.268 203.612 C 195.724 227.168,177.712 310.287,227.613 358.929 C 236.413 367.507,237.894 368.505,252.539 375.729 C 295.570 396.956,352.582 377.467,373.945 334.227 C 389.232 303.286,387.733 273.293,369.224 239.806 C 352.013 208.665,297.791 190.486,261.268 203.612 M19.930 217.650 C 11.348 220.419,5.886 225.691,1.490 235.450 C -4.368 248.453,1.054 289.472,10.463 303.337 C 40.365 347.401,127.739 365.317,184.963 339.119 C 193.877 335.038,193.915 334.929,189.999 324.628 C 188.428 320.494,187.143 315.619,187.143 313.794 C 187.143 308.274,181.438 308.916,169.572 315.770 C 165.222 318.283,154.524 319.803,153.762 318.016 C 149.337 307.640,134.380 270.234,133.991 268.571 C 133.772 267.634,136.412 261.218,141.161 251.143 L 145.000 243.001 171.035 242.929 L 197.069 242.857 199.455 238.214 C 200.767 235.661,204.640 229.996,208.063 225.625 C 211.485 221.255,214.286 217.237,214.286 216.697 C 214.286 214.916,25.536 215.841,19.930 217.650 M295.913 228.442 C 299.206 231.106,299.296 231.795,299.731 257.728 L 300.177 284.286 325.803 284.286 C 352.943 284.286,359.027 285.886,356.539 292.370 C 356.085 293.552,355.714 295.006,355.714 295.602 C 355.714 298.772,346.921 300.000,324.218 300.000 L 300.000 300.000 300.000 324.218 C 300.000 346.921,298.772 355.714,295.602 355.714 C 295.006 355.714,293.552 356.085,292.370 356.539 C 285.886 359.027,284.286 352.943,284.286 325.803 L 284.286 300.177 257.728 299.731 C 231.795 299.296,231.106 299.206,228.442 295.913 C 220.832 286.505,226.447 284.286,257.857 284.286 L 284.286 284.286 284.286 257.857 C 284.286 226.447,286.505 220.832,295.913 228.442 M110.449 255.513 L 115.898 268.126 110.730 281.563 C 97.678 315.498,94.635 321.868,91.971 320.846 C 90.750 320.377,87.074 319.571,83.804 319.054 C 50.492 313.790,25.714 287.445,25.714 257.290 C 25.714 242.131,23.616 242.853,67.602 242.879 L 105.000 242.901 110.449 255.513 " stroke="none" fill-rule="evenodd"></path></g></svg>