<svg id="svg" xmlns="http://www.w3.org/2000/svg" xmlns:xlink="http://www.w3.org/1999/xlink" viewBox="0, 0, 400,400" version="1.1"><g id="svgg"><path id="path0" d="M148.840 49.579 C 145.173 50.293,139.986 57.712,140.056 62.143 C 140.145 67.751,144.907 72.811,232.970 160.873 L 322.098 250.000 301.049 250.000 C 276.016 250.000,274.286 250.824,274.286 262.753 C 274.286 275.551,274.870 275.714,320.589 275.714 C 372.880 275.714,368.903 279.813,368.284 226.558 L 367.857 189.761 363.192 185.595 C 349.309 173.197,340.000 183.732,340.000 211.840 L 340.000 228.968 253.717 142.698 C 206.261 95.250,165.921 55.052,164.074 53.369 C 160.479 50.094,154.206 48.533,148.840 49.579 M38.214 117.257 C 32.058 120.843,31.429 125.130,31.429 163.478 L 31.429 199.955 35.568 204.588 C 41.152 210.838,49.510 211.137,55.357 205.296 C 59.193 201.464,59.297 200.922,59.750 182.322 L 60.214 163.272 153.321 256.398 C 217.883 320.974,247.677 349.836,250.501 350.540 C 256.450 352.023,263.962 349.055,266.453 344.238 C 271.485 334.508,275.693 339.362,173.953 237.546 L 79.336 142.857 98.130 142.857 C 116.264 142.857,117.078 142.727,121.319 139.159 C 127.341 134.091,127.637 124.503,121.934 119.218 L 118.154 115.714 79.434 115.758 C 55.802 115.784,39.740 116.369,38.214 117.257 " stroke="none" fill-rule="evenodd"></path></g></svg>