<svg id="svg" xmlns="http://www.w3.org/2000/svg" xmlns:xlink="http://www.w3.org/1999/xlink" width="400" height="400" viewBox="0, 0, 400,400"><g id="svgg"><path id="path0" d="M91.069 34.895 C 67.643 43.255,65.714 50.074,65.714 124.536 L 65.714 182.903 61.017 185.144 C 49.935 190.428,50.000 190.041,50.000 250.336 L 50.000 304.066 53.742 308.513 C 55.799 310.959,59.335 313.917,61.599 315.088 C 65.415 317.062,65.714 317.818,65.714 325.492 C 65.714 342.378,72.334 354.784,85.462 362.501 L 92.143 366.429 192.784 366.823 L 293.426 367.218 282.427 355.916 C 276.378 349.700,271.429 343.912,271.429 343.054 C 271.429 341.948,246.511 341.380,185.829 341.104 L 100.229 340.714 96.543 337.251 C 93.399 334.297,92.857 332.564,92.857 325.465 L 92.857 317.143 181.786 317.088 L 270.714 317.033 273.571 312.490 C 278.609 304.481,286.218 301.198,298.214 301.858 L 308.571 302.428 308.571 296.928 L 308.571 291.429 192.143 291.429 L 75.714 291.429 75.714 250.000 L 75.714 208.571 200.000 208.571 L 324.286 208.571 324.286 218.668 C 324.286 228.532,324.360 228.737,327.500 227.596 C 329.268 226.954,333.607 226.429,337.143 226.429 C 340.679 226.429,345.018 226.954,346.786 227.596 L 350.000 228.764 350.000 212.349 C 350.000 194.260,348.187 189.973,338.401 184.912 L 334.286 182.784 334.286 166.054 L 334.286 149.325 276.052 91.091 L 217.818 32.857 157.123 32.920 C 110.167 32.968,95.215 33.416,91.069 34.895 M200.031 98.929 C 200.066 144.022,200.433 146.052,210.330 155.949 C 220.508 166.127,221.822 166.381,266.786 166.848 L 307.143 167.268 307.143 175.063 L 307.143 182.857 200.000 182.857 L 92.857 182.857 92.857 124.413 L 92.857 65.968 97.252 62.270 L 101.648 58.571 150.824 58.571 L 200.000 58.571 200.031 98.929 M264.658 141.135 C 224.157 141.847,225.714 143.285,225.714 105.177 L 225.714 77.881 257.158 109.298 L 288.601 140.714 264.658 141.135 M132.725 219.038 C 106.411 232.930,112.643 280.034,141.302 283.879 C 156.519 285.919,172.654 270.618,165.357 261.066 C 161.835 256.455,156.490 256.549,151.059 261.318 C 142.040 269.236,135.000 264.274,135.000 250.000 C 135.000 235.726,142.040 230.764,151.059 238.682 C 161.534 247.880,172.441 237.167,164.276 225.700 C 157.619 216.352,143.471 213.365,132.725 219.038 M187.143 218.262 C 167.416 229.084,173.573 256.107,196.301 258.460 C 206.495 259.515,207.917 260.209,206.650 263.510 C 205.538 266.408,194.418 266.482,190.630 263.617 C 180.683 256.093,168.508 268.360,177.519 276.826 C 189.983 288.534,216.050 286.201,222.905 272.763 C 230.641 257.600,221.674 242.873,203.826 241.429 C 196.018 240.797,194.947 240.344,194.543 237.500 C 193.956 233.363,203.116 232.936,209.868 236.786 C 217.531 241.155,226.279 233.403,222.378 225.701 C 217.751 216.569,197.876 212.373,187.143 218.262 M236.032 217.938 C 231.068 221.415,232.020 225.886,243.605 253.509 C 261.466 296.096,263.789 296.014,281.966 252.155 C 292.312 227.194,293.050 224.762,291.246 221.588 C 284.775 210.203,278.231 213.766,270.024 233.143 C 266.475 241.521,263.199 248.739,262.744 249.182 C 262.289 249.625,259.143 243.212,255.753 234.931 C 248.159 216.380,243.719 212.554,236.032 217.938 M329.876 243.260 C 324.625 247.292,324.286 250.438,324.286 295.159 L 324.286 339.078 312.317 327.396 C 298.421 313.832,294.311 312.612,287.033 319.890 C 278.200 328.723,279.641 331.573,306.721 358.824 C 339.510 391.818,336.389 391.843,369.482 358.328 C 392.787 334.726,394.984 331.114,390.872 323.163 C 385.173 312.142,375.741 313.758,361.071 328.268 L 350.000 339.219 350.000 293.830 L 350.000 248.442 346.494 244.935 C 342.605 241.047,333.901 240.169,329.876 243.260 " stroke="none" fill="#000000" fill-rule="evenodd"></path></g></svg>