<svg id="svg" xmlns="http://www.w3.org/2000/svg" xmlns:xlink="http://www.w3.org/1999/xlink" width="400" height="400" viewBox="0, 0, 400,400"><g id="svgg"><path id="path0" d="M181.465 26.518 C 115.938 40.722,58.659 137.583,58.178 235.000 C 57.738 323.943,109.344 374.820,200.000 374.820 C 312.754 374.820,365.933 291.611,332.729 167.143 C 307.612 72.995,243.220 13.131,181.465 26.518 M219.163 54.243 C 245.999 63.476,272.814 92.238,291.228 131.539 C 296.770 143.367,307.143 170.854,307.143 173.710 C 307.143 174.027,258.929 174.286,200.000 174.286 C 141.071 174.286,92.857 174.027,92.857 173.710 C 92.857 170.733,103.199 143.302,108.783 131.469 C 137.243 71.154,180.451 40.925,219.163 54.243 M313.282 203.929 C 313.903 207.151,313.130 208.609,308.985 212.036 C 296.371 222.466,297.015 248.042,310.080 255.475 C 314.336 257.896,314.970 259.412,313.419 263.455 C 312.092 266.912,87.908 266.912,86.581 263.455 C 85.030 259.412,85.664 257.896,89.920 255.475 C 102.985 248.042,103.629 222.466,91.015 212.036 C 86.870 208.609,86.097 207.151,86.718 203.929 L 87.476 200.000 200.000 200.000 L 312.524 200.000 313.282 203.929 M149.507 209.162 C 122.800 218.999,129.814 258.460,158.285 258.548 C 179.278 258.613,191.049 236.199,179.351 218.438 C 173.541 209.617,159.837 205.358,149.507 209.162 M233.805 208.890 C 220.103 212.521,212.297 229.055,217.925 242.526 C 228.874 268.731,267.143 261.373,267.143 233.063 C 267.143 215.480,251.566 204.185,233.805 208.890 M302.327 296.786 C 266.063 366.901,133.815 366.441,97.282 296.071 L 95.614 292.857 199.986 292.857 L 304.359 292.857 302.327 296.786 " stroke="none" fill="#000000" fill-rule="evenodd"></path></g></svg>