<svg id="svg" xmlns="http://www.w3.org/2000/svg" xmlns:xlink="http://www.w3.org/1999/xlink" width="400" height="400" viewBox="0, 0, 400,400"><g id="svgg"><path id="path0" d="M91.069 34.895 C 79.818 38.910,71.164 48.059,67.686 59.616 C 64.659 69.676,64.779 330.633,67.816 340.812 C 70.438 349.602,76.782 357.399,85.462 362.501 L 92.143 366.429 138.153 366.859 L 184.163 367.289 186.464 359.002 C 187.730 354.444,189.364 348.850,190.097 346.573 C 190.829 344.295,191.429 342.231,191.429 341.987 C 191.429 341.742,170.908 341.356,145.827 341.128 L 100.226 340.714 96.542 337.251 L 92.857 333.788 92.857 200.000 L 92.857 66.212 96.542 62.749 L 100.227 59.286 150.113 58.876 L 200.000 58.466 200.000 98.952 L 200.000 139.439 203.791 147.047 C 207.710 154.911,215.825 161.963,224.737 165.248 C 227.776 166.369,242.210 166.962,268.214 167.034 L 307.143 167.143 307.143 182.857 C 307.143 200.007,307.250 200.191,314.219 195.049 C 316.845 193.112,322.434 190.101,326.639 188.358 L 334.286 185.189 334.286 167.257 L 334.286 149.325 276.052 91.091 L 217.818 32.857 157.123 32.920 C 110.167 32.968,95.215 33.416,91.069 34.895 M264.658 141.135 C 224.157 141.847,225.714 143.285,225.714 105.177 L 225.714 77.881 257.158 109.298 L 288.601 140.714 264.658 141.135 M329.286 203.432 C 323.159 206.352,214.286 312.695,214.286 315.760 C 214.286 316.130,211.071 327.681,207.143 341.429 C 197.706 374.451,198.008 380.869,209.128 383.660 C 213.279 384.701,262.818 371.033,269.286 367.062 C 277.286 362.150,376.657 261.099,379.932 254.545 C 396.044 222.306,361.928 187.876,329.286 203.432 " stroke="none" fill="#000000" fill-rule="evenodd"></path></g></svg>