<svg id="svg" xmlns="http://www.w3.org/2000/svg" xmlns:xlink="http://www.w3.org/1999/xlink" width="400" height="400" viewBox="0, 0, 400,400"><g id="svgg"><path id="path0" d="M52.947 94.560 C 43.573 98.159,33.446 107.813,28.510 117.857 L 25.000 125.000 25.000 200.000 L 25.000 275.000 28.504 282.143 C 33.404 292.133,43.955 301.993,53.609 305.605 C 66.053 310.262,333.947 310.262,346.391 305.605 C 356.026 302.001,366.542 292.167,371.481 282.143 L 375.000 275.000 375.000 200.000 L 375.000 125.000 371.474 117.857 C 366.360 107.496,356.431 98.151,346.648 94.490 C 333.950 89.740,65.336 89.803,52.947 94.560 M339.450 120.803 C 349.865 128.579,349.286 123.914,349.286 200.000 C 349.286 276.086,349.865 271.421,339.450 279.197 C 333.230 283.841,66.770 283.841,60.550 279.197 C 50.266 271.519,50.765 274.964,50.250 208.112 C 49.631 127.933,50.064 125.029,63.501 119.141 C 71.909 115.456,334.407 117.037,339.450 120.803 M95.714 145.810 C 80.116 151.162,77.796 152.430,75.872 156.653 C 69.887 169.788,82.639 179.775,97.500 173.592 C 99.846 172.615,100.000 175.008,100.000 212.455 L 100.000 252.359 103.458 255.608 C 109.602 261.380,121.567 259.293,124.354 251.963 C 125.120 249.949,125.714 226.841,125.714 199.083 L 125.714 149.780 121.538 145.604 C 116.219 140.285,111.711 140.321,95.714 145.810 M144.935 236.364 C 140.062 241.236,140.062 250.192,144.935 255.065 C 153.117 263.247,167.143 257.506,167.143 245.974 C 167.143 234.290,153.090 228.208,144.935 236.364 M186.623 236.623 C 178.180 245.067,183.774 258.571,195.714 258.571 C 200.014 258.571,202.485 257.645,205.065 255.065 C 207.645 252.485,208.571 250.014,208.571 245.714 C 208.571 233.774,195.067 228.180,186.623 236.623 " stroke="none" fill="#000000" fill-rule="evenodd"></path></g></svg>