<svg id="svg" xmlns="http://www.w3.org/2000/svg" xmlns:xlink="http://www.w3.org/1999/xlink" viewBox="0, 0, 400,400" version="1.1"><g id="svgg"><path id="path0" d="M49.121 16.022 C 43.412 20.407,42.904 21.366,42.879 27.803 C 42.848 35.932,59.753 52.857,67.905 52.857 C 83.537 52.857,86.876 37.307,73.929 24.802 C 60.539 11.870,56.424 10.414,49.121 16.022 M337.857 14.508 C 315.641 26.672,311.610 52.857,331.954 52.857 C 338.306 52.857,354.927 38.265,356.444 31.356 C 359.062 19.440,347.685 9.128,337.857 14.508 M188.571 32.368 C 88.759 45.457,47.267 159.539,115.656 232.849 C 119.683 237.166,123.304 242.309,123.701 244.278 C 124.099 246.246,125.609 253.000,127.056 259.286 C 128.503 265.571,131.425 278.429,133.548 287.857 C 135.672 297.286,138.592 310.143,140.038 316.429 C 141.484 322.714,143.084 330.393,143.593 333.493 C 147.848 359.375,161.815 367.874,200.000 367.819 C 238.103 367.763,251.971 359.325,256.281 333.571 C 256.807 330.429,258.442 322.714,259.913 316.429 C 261.385 310.143,263.925 298.893,265.557 291.429 C 269.503 273.387,275.804 245.673,276.729 242.288 C 277.136 240.797,281.106 235.654,285.550 230.860 C 329.858 183.059,328.370 110.771,282.147 65.600 C 276.985 60.556,272.009 56.170,271.089 55.855 C 270.169 55.540,268.244 54.189,266.811 52.855 C 253.930 40.854,210.526 29.489,188.571 32.368 M220.157 62.176 C 225.846 63.373,231.192 64.901,232.036 65.573 C 232.881 66.244,235.127 67.271,237.029 67.856 C 247.446 71.057,267.285 87.879,275.205 100.224 C 297.826 135.487,293.869 181.973,265.763 211.145 C 252.413 225.002,249.668 231.921,241.424 272.500 L 239.610 281.429 200.011 281.429 L 160.413 281.429 157.911 269.643 C 149.390 229.514,148.018 226.081,134.923 212.143 C 128.593 205.405,118.582 191.183,118.563 188.901 C 118.558 188.327,117.553 185.937,116.329 183.590 C 115.105 181.243,113.181 174.934,112.052 169.568 C 98.286 104.126,154.432 48.350,220.157 62.176 M2.857 127.143 C -1.042 131.042,-1.199 144.186,2.612 147.636 C 6.602 151.246,44.288 151.132,47.444 147.500 C 52.519 141.660,51.486 128.803,45.694 125.703 C 40.254 122.792,6.059 123.941,2.857 127.143 M354.036 125.769 C 348.469 129.017,347.599 141.796,352.556 147.500 C 355.888 151.335,394.150 151.239,397.636 147.388 C 401.159 143.495,400.851 130.851,397.143 127.143 C 393.962 123.962,359.041 122.848,354.036 125.769 M63.692 222.920 C 55.679 225.316,42.857 240.629,42.857 247.804 C 42.857 263.889,57.055 265.919,71.567 251.908 C 84.607 239.320,85.817 228.183,74.652 223.518 C 69.068 221.185,69.427 221.205,63.692 222.920 M324.857 223.468 C 310.488 229.723,326.095 261.429,343.542 261.429 C 358.881 261.429,361.514 245.805,348.409 232.553 C 338.342 222.374,332.525 220.130,324.857 223.468 M232.187 312.719 C 231.712 314.214,230.743 319.006,230.033 323.367 C 227.448 339.254,226.087 340.000,199.697 340.000 C 173.079 340.000,171.341 338.645,168.074 315.357 L 167.322 310.000 200.186 310.000 C 231.843 310.000,233.018 310.100,232.187 312.719 " stroke="none" fill-rule="evenodd"></path></g></svg>