<svg id="svg" xmlns="http://www.w3.org/2000/svg" xmlns:xlink="http://www.w3.org/1999/xlink" viewBox="0, 0, 400,400" version="1.1"><g id="svgg"><path id="path0" d="M307.102 44.018 C 277.273 54.326,263.980 94.411,281.999 119.716 C 286.645 126.241,287.004 125.368,266.803 156.688 C 248.459 185.129,248.334 185.275,243.443 184.034 C 213.268 176.381,183.348 199.839,183.035 231.395 L 182.927 242.298 148.641 258.505 L 114.354 274.713 109.226 269.890 C 96.325 257.758,70.423 254.093,53.279 261.974 C 12.815 280.575,15.926 343.332,57.962 356.438 C 92.691 367.266,124.771 344.749,125.374 309.122 L 125.538 299.391 159.705 283.201 L 193.872 267.011 198.165 271.030 C 216.977 288.639,255.621 287.200,271.525 268.299 C 284.867 252.443,287.508 225.823,277.542 207.650 L 272.298 198.086 291.152 168.871 L 310.005 139.655 316.060 141.327 C 343.757 148.975,373.037 126.361,375.044 95.772 C 377.579 57.132,343.741 31.357,307.102 44.018 M335.023 69.473 C 361.911 80.708,346.609 122.449,318.389 114.850 C 298.197 109.413,295.095 79.787,313.751 70.553 C 321.645 66.645,327.538 66.346,335.023 69.473 M245.967 212.329 C 255.862 217.446,260.068 233.159,254.506 244.230 C 243.092 266.947,209.836 258.770,209.836 233.246 C 209.836 214.600,228.955 203.532,245.967 212.329 M82.060 285.245 C 97.707 289.591,104.178 311.293,93.465 323.494 C 75.676 343.756,44.694 326.911,52.406 301.171 C 56.462 287.631,68.117 281.371,82.060 285.245 " stroke="none" fill-rule="evenodd"></path></g></svg>