<svg id="svg" xmlns="http://www.w3.org/2000/svg" xmlns:xlink="http://www.w3.org/1999/xlink" viewBox="0, 0, 400,400" version="1.1"><g id="svgg"><path id="path0" d="M184.286 32.327 C 159.432 35.498,134.326 43.635,114.286 55.013 C 94.524 66.234,65.914 94.858,55.043 114.286 C 41.212 139.003,39.102 151.732,47.933 157.190 C 55.043 161.584,68.571 157.605,68.571 151.120 C 68.571 132.302,109.608 87.496,140.000 73.130 C 187.446 50.704,254.673 58.966,288.645 91.399 C 289.896 92.594,293.124 95.561,295.817 97.993 C 340.239 138.102,352.756 207.271,325.522 262.143 C 322.466 268.300,320.043 272.255,312.143 283.976 C 311.357 285.141,309.429 287.487,307.857 289.188 C 306.286 290.890,303.321 294.179,301.270 296.498 C 297.659 300.580,288.058 309.224,283.894 312.143 C 223.317 354.607,144.854 347.716,97.993 295.817 C 95.561 293.124,92.607 289.905,91.429 288.664 C 85.485 282.405,73.427 261.575,68.064 248.305 C 65.048 240.843,56.415 238.123,48.758 242.223 C 26.070 254.371,70.613 320.591,119.286 347.071 C 254.816 420.807,410.043 287.584,357.789 142.375 C 332.703 72.663,254.902 23.315,184.286 32.327 M184.643 141.884 C 178.699 150.615,179.764 153.037,197.421 170.934 L 213.413 187.143 125.635 187.153 L 37.857 187.162 34.643 191.884 C 30.434 198.066,30.580 203.058,35.127 208.462 L 38.825 212.857 125.127 212.857 C 172.593 212.857,211.429 213.297,211.429 213.835 C 211.429 214.372,206.125 220.011,199.643 226.365 C 179.761 245.854,177.928 249.906,185.127 258.462 C 188.292 262.223,189.795 262.857,195.547 262.857 L 202.268 262.857 229.168 235.982 C 268.317 196.870,268.204 202.501,230.589 164.857 L 202.897 137.143 195.377 137.153 C 188.473 137.162,187.594 137.549,184.643 141.884 " stroke="none" fill-rule="evenodd"></path></g></svg>