<svg id="svg" xmlns="http://www.w3.org/2000/svg" xmlns:xlink="http://www.w3.org/1999/xlink" viewBox="0, 0, 400,400" version="1.1"><g id="svgg"><path id="path0" d="M44.286 53.008 C 36.684 57.565,31.835 62.652,27.877 70.222 L 24.286 77.090 24.286 193.353 L 24.286 309.616 29.213 319.451 C 35.173 331.346,43.474 339.705,55.177 345.596 L 63.925 350.000 199.628 350.000 L 335.330 350.000 345.354 344.986 C 357.151 339.084,365.810 330.318,371.199 318.822 L 375.000 310.714 375.404 236.429 C 375.819 160.195,375.168 150.000,369.882 150.000 C 369.161 150.000,368.571 149.129,368.571 148.064 C 368.571 141.841,350.513 132.793,336.071 131.780 L 325.714 131.053 325.714 104.311 C 325.714 70.667,322.044 61.522,305.153 53.087 L 298.973 50.000 174.129 50.005 C 49.883 50.011,49.262 50.025,44.286 53.008 M294.620 79.882 L 299.286 84.050 299.684 189.458 C 300.123 305.848,299.519 298.788,309.203 300.604 C 314.612 301.619,321.050 299.591,323.767 296.015 C 325.227 294.093,325.633 279.314,325.669 226.786 L 325.714 160.000 333.636 160.000 C 350.379 160.000,350.297 159.600,349.731 238.571 C 349.232 308.168,349.390 307.095,338.277 316.465 C 328.599 324.626,334.618 324.286,199.954 324.286 C 52.996 324.286,64.325 325.722,53.436 305.714 C 50.827 300.922,50.714 296.210,50.714 192.383 L 50.714 84.052 55.380 79.883 L 60.045 75.714 175.000 75.714 L 289.955 75.714 294.620 79.882 M77.392 127.592 C 73.186 132.069,73.047 143.047,77.143 147.143 C 79.943 149.943,81.905 150.000,174.944 150.000 L 269.889 150.000 272.801 146.873 C 276.756 142.629,276.732 133.107,272.753 128.050 L 269.793 124.286 175.145 124.286 L 80.498 124.286 77.392 127.592 M80.943 192.026 C 74.508 194.871,74.331 195.972,74.308 233.279 L 74.286 268.701 77.792 272.208 L 81.299 275.714 115.743 275.714 C 162.737 275.714,160.000 278.371,160.000 232.762 C 160.000 198.799,159.027 194.292,151.100 191.528 C 144.704 189.298,86.172 189.714,80.943 192.026 M189.251 191.994 C 180.865 195.648,179.094 205.912,185.595 213.192 L 189.761 217.857 226.558 218.284 C 273.799 218.833,281.982 215.139,274.827 196.492 C 272.361 190.066,202.147 186.375,189.251 191.994 M131.429 234.286 L 131.429 250.000 115.714 250.000 L 100.000 250.000 100.000 234.286 L 100.000 218.571 115.714 218.571 L 131.429 218.571 131.429 234.286 M184.383 254.149 C 180.104 260.159,180.548 266.482,185.604 271.538 L 189.780 275.714 229.241 275.714 L 268.701 275.714 272.208 272.208 C 276.803 267.613,277.154 257.154,272.857 252.857 C 270.132 250.132,268.095 250.000,228.669 250.000 L 187.337 250.000 184.383 254.149 " stroke="none" fill-rule="evenodd"></path></g></svg>