<svg id="svg" xmlns="http://www.w3.org/2000/svg" xmlns:xlink="http://www.w3.org/1999/xlink" viewBox="0, 0, 400,400" version="1.1"><g id="svgg"><path id="path0" d="M187.857 32.270 C 158.231 36.517,141.174 40.517,127.143 46.510 C 122.821 48.356,117.941 50.228,116.297 50.672 C 103.712 54.066,103.708 72.945,116.292 77.098 C 120.704 78.554,122.496 78.234,132.414 74.215 C 180.339 54.795,224.776 55.007,277.555 74.908 C 304.844 85.197,310.599 58.986,283.571 47.502 C 258.186 36.715,210.163 29.073,187.857 32.270 M67.813 81.143 C 50.058 95.453,31.429 117.596,31.429 124.390 C 31.429 131.300,37.747 137.143,45.221 137.143 C 54.318 137.143,92.857 98.807,92.857 89.758 C 92.857 76.471,79.368 71.831,67.813 81.143 M203.049 85.767 C 200.337 88.027,199.648 90.030,199.559 95.920 C 199.401 106.421,202.867 108.856,221.435 111.289 C 261.098 116.485,302.726 143.115,319.845 174.242 C 330.536 193.680,335.530 207.736,338.477 226.680 C 341.710 247.463,343.345 250.000,353.501 250.000 C 367.524 250.000,369.894 242.049,364.356 213.571 C 356.101 171.115,333.375 137.088,294.710 109.286 C 269.249 90.979,213.855 76.766,203.049 85.767 M150.000 91.299 C 129.029 98.944,117.819 105.276,100.470 119.274 C 89.807 127.879,68.571 150.652,68.571 153.484 C 68.571 154.030,67.044 156.523,65.177 159.024 C 37.061 196.693,30.733 292.857,56.371 292.857 C 59.415 292.857,62.708 291.620,65.069 289.588 L 68.869 286.320 69.116 252.803 C 69.390 215.536,71.180 206.659,82.954 184.150 C 98.922 153.625,130.577 125.968,159.154 117.576 C 170.612 114.210,175.714 109.625,175.714 102.691 C 175.714 88.194,167.951 84.755,150.000 91.299 M191.429 132.282 C 102.664 148.602,70.244 220.934,103.902 327.556 C 107.723 339.661,110.807 342.949,118.541 343.169 C 129.539 343.482,134.774 330.615,129.392 316.499 C 114.882 278.439,115.005 229.433,129.678 202.857 C 153.772 159.219,223.045 145.539,256.538 177.804 C 257.385 178.619,260.282 181.218,262.976 183.580 C 265.671 185.941,270.069 190.602,272.748 193.937 C 286.247 210.734,306.754 194.403,294.411 176.686 C 274.436 148.012,224.046 126.285,191.429 132.282 M196.429 181.994 C 195.643 182.283,190.821 183.695,185.714 185.132 C 140.811 197.765,128.870 246.536,153.219 317.857 C 162.068 343.779,178.074 368.571,185.960 368.571 C 200.391 368.571,204.043 354.317,193.653 338.545 C 190.072 333.110,187.143 328.314,187.143 327.888 C 187.143 327.461,185.936 324.387,184.461 321.056 C 169.542 287.362,163.806 242.360,172.653 228.409 C 186.311 206.873,211.435 203.470,229.141 220.757 C 237.735 229.148,237.747 229.182,241.400 256.429 C 245.450 286.643,251.008 299.191,268.465 317.537 C 285.715 335.664,293.155 338.493,301.538 330.110 C 309.286 322.363,307.803 317.216,293.873 303.504 C 275.271 285.193,270.638 275.257,268.588 249.286 C 266.435 222.013,257.750 205.530,238.197 191.609 C 230.262 185.959,202.821 179.643,196.429 181.994 M295.421 226.009 C 289.885 230.210,288.575 242.273,291.964 257.857 C 299.553 292.749,342.857 317.728,342.857 287.213 C 342.857 282.314,332.231 268.571,328.443 268.571 C 324.337 268.571,318.571 254.785,318.571 244.966 C 318.571 228.079,306.127 217.888,295.421 226.009 M196.937 233.595 C 182.378 241.504,195.068 305.042,217.189 335.000 C 235.788 360.187,253.217 366.939,258.478 350.996 C 260.938 343.544,259.326 339.922,248.408 328.367 C 231.900 310.897,220.997 283.293,218.629 252.973 C 217.163 234.197,209.095 226.990,196.937 233.595 " stroke="none" fill-rule="evenodd"></path></g></svg>