<svg id="svg" xmlns="http://www.w3.org/2000/svg" xmlns:xlink="http://www.w3.org/1999/xlink" width="400" height="400" viewBox="0, 0, 400,400"><g id="svgg"><path id="path0" d="M91.069 34.895 C 79.818 38.910,71.164 48.059,67.686 59.616 C 64.659 69.676,64.779 330.633,67.816 340.812 C 70.438 349.602,76.782 357.399,85.462 362.501 L 92.143 366.429 183.929 366.826 C 234.411 367.045,275.714 366.769,275.714 366.214 C 275.714 365.659,270.732 360.016,264.643 353.674 L 253.571 342.143 176.900 341.429 L 100.228 340.714 96.543 337.251 L 92.857 333.788 92.857 200.000 L 92.857 66.212 96.542 62.749 L 100.227 59.286 150.113 58.876 L 200.000 58.466 200.000 98.952 L 200.000 139.439 203.791 147.047 C 207.710 154.911,215.825 161.963,224.737 165.248 C 227.776 166.369,242.210 166.962,268.214 167.034 L 307.143 167.143 307.143 193.726 L 307.143 220.310 311.071 219.139 C 313.232 218.494,317.571 217.967,320.714 217.967 C 323.857 217.967,328.196 218.494,330.357 219.139 L 334.286 220.310 334.286 184.817 L 334.286 149.325 276.052 91.091 L 217.818 32.857 157.123 32.920 C 110.167 32.968,95.215 33.416,91.069 34.895 M264.658 141.135 C 224.157 141.847,225.714 143.285,225.714 105.177 L 225.714 77.881 257.158 109.298 L 288.601 140.714 264.658 141.135 M176.933 177.164 C 162.809 184.627,162.597 203.183,176.332 229.641 L 182.578 241.674 179.031 252.225 L 175.483 262.777 159.527 270.588 C 126.793 286.613,117.075 300.998,128.316 316.784 C 141.926 335.897,164.968 324.196,182.466 289.286 C 185.222 283.786,187.566 279.175,187.675 279.040 C 187.783 278.905,192.705 277.373,198.612 275.635 L 209.352 272.475 220.033 279.628 C 248.216 298.502,275.714 294.679,275.714 271.886 C 275.714 252.874,260.384 246.477,226.665 251.415 L 215.000 253.124 208.890 246.381 C 204.898 241.976,203.051 238.782,203.563 237.170 C 216.850 195.304,202.748 163.526,176.933 177.164 M190.518 195.003 C 191.348 197.167,189.536 209.512,188.190 210.857 C 187.034 212.014,183.907 197.334,184.809 194.983 C 185.866 192.229,189.458 192.241,190.518 195.003 M311.865 236.303 L 307.857 239.749 307.143 288.494 L 306.429 337.238 297.857 328.511 C 284.851 315.267,276.043 312.513,269.593 319.671 C 261.771 328.351,264.133 333.031,289.100 358.328 C 322.178 391.844,319.061 391.819,351.850 358.824 C 378.060 332.449,379.618 329.633,372.795 320.960 C 365.982 312.298,358.301 314.261,343.929 328.336 L 334.286 337.781 334.286 289.495 L 334.286 241.209 330.110 237.033 C 324.737 231.660,317.598 231.374,311.865 236.303 M256.663 269.382 C 258.437 274.006,254.755 274.961,246.090 272.123 L 237.857 269.427 242.857 268.473 C 251.769 266.772,255.763 267.035,256.663 269.382 M159.011 293.214 C 150.787 304.185,147.938 307.143,145.594 307.143 C 140.110 307.143,142.762 302.107,151.071 296.745 C 160.017 290.971,161.031 290.520,159.011 293.214 " stroke="none" fill="#000000" fill-rule="evenodd"></path></g></svg>