<svg id="svg" xmlns="http://www.w3.org/2000/svg" xmlns:xlink="http://www.w3.org/1999/xlink" viewBox="0, 0, 400,400" version="1.1"><g id="svgg"><path id="path0" d="M36.286 36.286 C 25.852 46.719,19.381 38.550,110.524 130.008 L 187.143 206.892 187.143 265.589 L 187.143 324.286 175.097 324.286 C 158.514 324.286,151.228 334.953,160.104 346.236 L 163.065 350.000 200.000 350.000 L 236.935 350.000 239.896 346.236 C 248.781 334.941,241.109 324.286,224.091 324.286 L 212.857 324.286 212.857 279.286 C 212.857 254.536,213.268 234.286,213.770 234.286 C 214.271 234.286,243.039 262.636,277.698 297.287 C 359.557 379.126,353.207 374.222,363.714 363.714 C 374.774 352.655,389.646 369.466,209.965 189.921 C 28.777 8.870,47.308 25.263,36.286 36.286 M307.528 49.547 C 305.776 49.901,303.112 51.755,301.609 53.667 L 298.875 57.143 204.437 57.143 C 152.497 57.143,110.000 57.638,110.000 58.244 C 110.000 58.850,115.638 64.957,122.528 71.815 L 135.057 84.286 161.100 84.286 L 187.143 84.286 187.143 110.387 L 187.143 136.488 200.000 149.286 L 212.857 162.083 212.857 123.185 L 212.857 84.286 255.604 84.286 L 298.352 84.286 302.637 88.571 C 308.224 94.158,315.120 94.375,321.319 89.159 C 329.636 82.160,327.049 50.081,318.159 49.980 C 317.207 49.970,315.143 49.723,313.571 49.432 C 312.000 49.140,309.281 49.192,307.528 49.547 " stroke="none" fill-rule="evenodd"></path></g></svg>