<svg id="svg" xmlns="http://www.w3.org/2000/svg" xmlns:xlink="http://www.w3.org/1999/xlink" viewBox="0, 0, 400,400" version="1.1"><g id="svgg"><path id="path0" d="M96.429 32.442 C 83.341 35.735,71.168 46.441,67.865 57.562 C 64.597 68.565,64.638 330.857,67.909 342.109 C 70.486 350.975,78.705 359.981,88.571 364.750 C 94.993 367.854,95.106 367.857,200.000 367.857 L 305.000 367.857 312.319 363.996 C 321.832 358.978,330.246 349.348,332.509 340.888 C 335.411 330.036,335.047 68.059,332.115 57.974 C 329.545 49.131,321.151 39.898,311.445 35.237 C 305.251 32.264,107.364 29.691,96.429 32.442 M303.056 62.731 L 306.429 65.462 306.429 199.955 L 306.429 334.449 302.857 337.193 C 299.414 339.838,295.726 339.936,200.000 339.936 C 104.274 339.936,100.586 339.838,97.143 337.193 L 93.571 334.449 93.571 199.955 L 93.571 65.462 96.944 62.731 C 102.207 58.469,297.793 58.469,303.056 62.731 M188.571 84.321 C 170.559 92.724,164.448 110.648,173.889 127.383 C 189.115 154.371,230.204 143.239,230.204 112.126 C 230.204 90.759,207.407 75.534,188.571 84.321 M153.764 160.104 C 148.134 164.532,148.056 186.042,153.646 192.685 C 172.153 214.680,229.541 214.410,246.444 192.249 C 251.917 185.075,251.783 164.467,246.236 160.104 C 240.390 155.506,159.610 155.506,153.764 160.104 M128.681 235.127 C 121.139 241.473,122.349 253.226,131.000 257.658 C 138.664 261.584,263.085 261.157,269.605 257.182 C 277.807 252.181,278.099 240.030,270.146 234.688 L 265.292 231.429 199.184 231.429 L 133.076 231.429 128.681 235.127 M128.681 285.127 C 121.139 291.473,122.349 303.226,131.000 307.658 C 137.356 310.914,227.242 311.191,234.931 307.978 C 245.299 303.646,246.132 291.919,236.593 284.594 C 232.520 281.466,231.891 281.429,182.774 281.429 L 133.076 281.429 128.681 285.127 " stroke="none" fill-rule="evenodd"></path></g></svg>