<svg id="svg" xmlns="http://www.w3.org/2000/svg" xmlns:xlink="http://www.w3.org/1999/xlink" viewBox="0, 0, 400,400" version="1.1"><g id="svgg"><path id="path0" d="M188.571 33.053 C 185.036 33.870,181.532 35.124,180.786 35.841 C 180.039 36.557,178.432 37.155,177.214 37.169 C 171.358 37.238,51.855 153.325,41.196 169.299 C 28.457 188.390,29.585 216.596,43.780 233.919 C 50.489 242.107,157.797 349.432,165.966 356.125 C 183.927 370.841,212.093 371.503,231.429 357.663 C 250.133 344.276,359.455 230.958,363.548 220.714 C 370.970 202.141,368.087 180.563,356.254 166.123 C 349.467 157.840,242.197 50.563,233.919 43.780 C 222.641 34.538,202.631 29.805,188.571 33.053 M210.960 62.153 C 218.383 65.255,334.578 181.657,337.693 189.113 C 344.952 206.487,344.909 206.548,276.205 275.282 C 207.207 344.310,206.376 344.906,189.119 337.695 C 181.690 334.591,65.235 218.334,62.144 210.936 C 54.885 193.565,55.988 192.008,123.277 124.617 C 191.358 56.434,193.544 54.877,210.960 62.153 M227.143 152.857 C 224.872 155.128,224.286 157.619,224.286 165.000 L 224.286 174.286 204.066 174.286 C 162.218 174.286,150.000 187.822,150.000 234.183 C 150.000 266.491,153.314 272.871,167.123 267.151 C 174.526 264.085,174.949 262.649,175.714 238.002 C 176.744 204.847,179.824 201.270,208.214 200.262 L 224.286 199.692 224.286 209.196 C 224.286 232.252,236.763 232.386,259.574 209.574 C 281.731 187.418,281.737 187.114,260.439 165.501 L 245.165 150.000 237.582 150.000 C 231.905 150.000,229.282 150.718,227.143 152.857 " stroke="none" fill-rule="evenodd"></path></g></svg>