<svg id="svg" xmlns="http://www.w3.org/2000/svg" xmlns:xlink="http://www.w3.org/1999/xlink" viewBox="0, 0, 400,400" version="1.1"><g id="svgg"><path id="path0" d="M60.506 42.026 C 56.463 43.007,50.678 45.774,47.649 48.176 C 30.785 61.549,31.274 57.817,31.746 169.715 C 32.194 275.781,31.557 269.882,43.846 281.628 C 54.815 292.113,54.712 292.093,99.643 292.582 L 140.000 293.020 140.000 312.224 L 140.000 331.429 124.643 331.434 C 102.663 331.442,96.009 336.591,99.730 350.714 C 102.215 360.144,100.612 359.995,200.022 359.998 C 299.414 360.000,297.682 360.163,300.275 350.581 C 304.009 336.782,296.997 331.429,275.189 331.429 L 260.000 331.429 260.000 312.224 L 260.000 293.020 300.357 292.556 C 349.008 291.996,353.562 290.434,364.056 270.714 L 367.857 263.571 367.857 167.143 L 367.857 70.714 364.125 62.757 C 359.191 52.236,349.866 44.552,338.902 41.972 C 327.425 39.271,71.659 39.321,60.506 42.026 M337.693 72.093 C 340.721 76.714,341.175 256.208,338.169 260.124 C 333.868 265.725,334.138 265.714,200.023 265.714 C 61.820 265.714,63.407 265.788,60.887 259.222 C 58.596 253.250,59.943 75.701,62.307 72.093 L 64.614 68.571 200.000 68.571 L 335.386 68.571 337.693 72.093 M231.429 312.143 L 231.429 331.429 200.000 331.429 L 168.571 331.429 168.571 312.143 L 168.571 292.857 200.000 292.857 L 231.429 292.857 231.429 312.143 " stroke="none" fill-rule="evenodd"></path></g></svg>