<svg id="svg" xmlns="http://www.w3.org/2000/svg" xmlns:xlink="http://www.w3.org/1999/xlink" viewBox="0, 0, 400,400" version="1.1"><g id="svgg"><path id="path0" d="M182.597 32.600 C 179.931 33.677,168.450 44.786,131.786 81.761 L 107.143 106.614 107.143 129.274 L 107.143 151.935 128.571 173.525 C 140.357 185.400,150.000 195.509,150.000 195.991 C 150.000 197.018,72.835 274.286,71.810 274.286 C 71.429 274.286,69.741 275.543,68.058 277.081 C 66.376 278.618,58.893 284.746,51.429 290.699 C 24.839 311.905,24.891 319.401,51.818 346.861 C 80.859 376.475,87.580 375.996,113.897 342.434 C 125.034 328.230,201.178 250.000,203.866 250.000 C 204.426 250.000,214.600 259.643,226.475 271.429 L 248.065 292.857 270.753 292.857 L 293.440 292.857 328.968 257.500 C 371.237 215.435,368.571 219.595,368.571 195.691 C 368.571 172.690,369.912 175.256,344.513 149.649 L 323.620 128.584 330.206 122.506 C 348.681 105.458,347.349 94.438,324.098 71.971 C 304.336 52.875,294.920 52.038,278.878 67.952 L 270.901 75.866 250.093 55.229 C 238.649 43.879,227.882 33.881,226.165 33.011 C 222.781 31.295,186.671 30.954,182.597 32.600 M277.494 122.494 L 340.000 184.988 340.000 195.870 L 340.000 206.752 310.548 236.233 L 281.097 265.714 270.912 265.714 L 260.726 265.714 197.506 202.506 L 134.286 139.298 134.286 128.992 L 134.286 118.687 163.565 89.344 L 192.845 60.000 203.916 60.000 L 214.988 60.000 277.494 122.494 M308.580 104.936 L 304.277 109.239 297.551 102.513 L 290.824 95.787 294.985 91.444 L 299.146 87.102 306.015 93.867 L 312.884 100.633 308.580 104.936 M151.085 262.456 C 132.814 280.748,117.380 295.714,116.788 295.714 C 115.514 295.714,104.286 284.343,104.286 283.053 C 104.286 282.565,119.219 267.222,137.470 248.958 L 170.654 215.752 177.480 222.475 L 184.306 229.198 151.085 262.456 M96.498 319.220 C 95.496 320.042,91.910 324.449,88.531 329.013 L 82.386 337.313 72.628 327.630 C 64.925 319.986,63.245 317.586,64.649 316.236 C 65.628 315.296,69.942 311.635,74.236 308.101 L 82.043 301.676 90.182 309.701 C 96.450 315.882,97.901 318.069,96.498 319.220 " stroke="none" fill-rule="evenodd"></path></g></svg>