<svg id="svg" xmlns="http://www.w3.org/2000/svg" xmlns:xlink="http://www.w3.org/1999/xlink" viewBox="0, 0, 400,400" version="1.1"><g id="svgg"><path id="path0" d="M178.867 27.834 C 171.015 31.490,165.567 36.785,69.563 134.084 C 25.451 178.792,23.628 181.565,24.555 202.515 C 25.538 224.697,17.723 215.497,127.691 323.927 C 177.937 373.469,179.260 374.427,198.851 375.424 C 219.766 376.489,222.092 374.928,266.731 329.868 C 381.791 213.724,375.000 221.915,375.000 199.286 C 375.000 175.483,384.535 186.858,268.637 72.397 C 221.467 25.811,219.234 24.279,198.571 24.301 C 188.682 24.311,185.025 24.967,178.867 27.834 M208.709 54.170 C 214.588 57.751,344.319 185.971,346.707 190.562 C 350.285 197.442,349.434 203.670,343.952 210.705 C 336.837 219.838,217.405 340.733,211.146 345.139 C 198.704 353.896,196.976 352.804,150.000 306.483 C 129.964 286.727,100.499 257.740,84.522 242.067 C 54.324 212.445,51.143 208.484,51.143 200.513 C 51.143 193.029,52.594 191.396,121.429 121.406 C 195.832 45.752,195.414 46.075,208.709 54.170 M190.907 110.104 L 187.143 113.065 187.143 170.721 L 187.143 228.377 191.292 231.331 C 193.574 232.956,197.493 234.286,200.000 234.286 C 202.507 234.286,206.426 232.956,208.708 231.331 L 212.857 228.377 212.857 170.721 L 212.857 113.065 209.093 110.104 C 206.813 108.310,203.228 107.143,200.000 107.143 C 196.772 107.143,193.187 108.310,190.907 110.104 M188.056 261.862 C 181.791 267.771,180.366 273.039,182.993 280.576 C 188.295 295.789,209.294 296.976,216.186 282.453 C 224.566 264.793,202.261 248.466,188.056 261.862 " stroke="none" fill-rule="evenodd"></path></g></svg>