<svg id="svg" xmlns="http://www.w3.org/2000/svg" xmlns:xlink="http://www.w3.org/1999/xlink" viewBox="0, 0, 400,400"><path xmlns="http://www.w3.org/2000/svg" id="path0" d="M204.286 34.734 C 187.744 39.977,177.896 64.172,185.571 80.714 C 200.091 112.008,247.845 103.847,249.772 69.743 C 251.251 43.572,229.418 26.768,204.286 34.734 M110.184 99.099 C 84.665 107.752,87.137 105.490,71.427 134.563 C 56.815 161.605,58.010 160.079,52.947 158.168 C 44.177 154.858,36.846 167.031,43.929 173.143 C 45.304 174.330,89.179 198.349,141.429 226.518 C 223.763 270.907,239.519 279.934,259.606 294.225 L 282.784 310.714 282.821 327.993 C 282.875 353.769,283.281 353.941,316.027 342.119 C 343.799 332.092,342.857 333.225,342.857 309.842 C 342.857 285.641,346.264 288.131,299.209 277.933 C 260.933 269.638,235.871 260.588,235.698 255.000 C 235.357 243.964,218.287 142.011,215.819 136.275 C 211.366 125.923,201.892 117.601,181.271 105.927 C 149.786 88.103,144.198 87.566,110.184 99.099 M124.363 134.643 C 119.733 146.271,104.099 183.520,103.670 183.949 C 103.054 184.565,87.574 176.807,83.903 174.044 C 79.323 170.595,102.056 133.878,109.499 132.703 C 122.354 130.673,125.767 131.118,124.363 134.643 M198.526 205.451 C 202.480 223.770,205.714 239.067,205.714 239.444 C 205.714 240.024,180.814 227.003,172.277 221.960 C 169.745 220.464,180.001 189.978,189.033 172.147 C 190.800 168.659,189.920 165.570,198.526 205.451 M90.703 218.929 C 85.171 234.464,57.251 338.125,57.964 340.480 C 59.808 346.571,64.401 350.000,70.714 350.000 C 75.020 350.000,77.470 349.119,79.656 346.786 C 81.850 344.443,114.225 271.510,128.059 237.741 C 128.599 236.425,95.150 217.143,92.328 217.143 C 91.784 217.143,91.053 217.946,90.703 218.929 M134.755 242.019 C 135.286 243.403,141.246 253.527,147.999 264.517 L 160.278 284.499 163.015 311.178 C 166.868 348.750,167.384 350.000,179.037 350.000 C 191.441 350.000,192.078 348.088,192.533 309.531 C 193.023 268.013,195.401 272.406,162.857 254.691 C 133.327 238.616,133.474 238.682,134.755 242.019 M324.286 313.386 L 324.286 319.628 312.500 323.915 L 300.714 328.202 300.277 321.086 C 299.751 312.526,299.023 313.337,310.182 310.046 C 323.909 305.998,324.286 306.087,324.286 313.386 " stroke="none" fill="#000000" fill-rule="evenodd"/></svg>